<svg width="90" height="70" viewBox="0 0 90 70" fill="none" xmlns="http://www.w3.org/2000/svg">
<path d="M69.4776 47.0916C69.7214 46.9695 70.0086 46.9695 70.2524 47.0916L89.522 55.1183C89.9492 55.3321 90.1221 55.8516 89.9084 56.2787C89.7867 56.5219 89.5578 56.6937 89.2903 56.7425L80.366 58.3658L78.7427 67.29C78.6763 67.6558 78.3834 67.9383 78.0154 67.9914C77.9747 67.9973 77.9336 68.0002 77.8926 68.0001C77.5648 68.0002 77.2651 67.8151 77.1186 67.5218L69.0918 48.2522C68.8779 47.8252 69.0506 47.3056 69.4776 47.0916Z" fill="white"/>
<rect y="2" width="40" height="5" fill="#8D8D8D"/>
<rect y="17" width="70" height="5" fill="white"/>
<rect y="32" width="50" height="5" fill="#8D8D8D"/>
<rect y="47" width="60" height="5" fill="#F03737"/>
<rect y="63" width="30" height="5" fill="#8D8D8D"/>
</svg>
