<svg width="90" height="70" viewBox="0 0 90 70" fill="none" xmlns="http://www.w3.org/2000/svg">
<path d="M69.4776 27.0916C69.7214 26.9695 70.0086 26.9695 70.2524 27.0916L89.522 35.1183C89.9492 35.3321 90.1221 35.8516 89.9084 36.2787C89.7867 36.5219 89.5578 36.6937 89.2903 36.7425L80.366 38.3658L78.7427 47.29C78.6763 47.6558 78.3834 47.9383 78.0154 47.9914C77.9747 47.9973 77.9336 48.0002 77.8926 48.0001C77.5648 48.0002 77.2651 47.8151 77.1186 47.5218L69.0918 28.2522C68.8779 27.8252 69.0506 27.3056 69.4776 27.0916Z" fill="white"/>
<rect y="2" width="40" height="5" fill="#8D8D8D"/>
<rect y="17" width="70" height="5" fill="#F03737"/>
<rect y="32" width="50" height="5" fill="#8D8D8D"/>
<rect y="47" width="60" height="5" fill="#8D8D8D"/>
<rect y="62" width="30" height="5" fill="#8D8D8D"/>
</svg>
