<svg width="16" height="16" viewBox="0 0 16 16" fill="none" xmlns="http://www.w3.org/2000/svg">
<path d="M7.2 12.8H8.8V11.2H7.2V12.8ZM8 0C3.584 0 0 3.58399 0 7.99998C0 12.416 3.584 16 8 16C12.416 16 16 12.416 16 7.99998C16 3.58399 12.416 0 8 0ZM8 14.4C4.472 14.4 1.6 11.528 1.6 7.99998C1.6 4.47199 4.472 1.6 8 1.6C11.528 1.6 14.4 4.47199 14.4 7.99998C14.4 11.528 11.528 14.4 8 14.4ZM8 3.19999C6.2448 3.19999 4.8 4.64479 4.8 6.39998H6.4C6.4 5.51998 7.12 4.79999 8 4.79999C8.88 4.79999 9.6 5.51998 9.6 6.39998C9.6 7.99998 7.2 7.79998 7.2 10.4H8.8C8.8 8.59998 11.2 8.39998 11.2 6.39998C11.2 4.64479 9.7552 3.19999 8 3.19999Z" fill="#8D8D8D"/>
</svg>
