<svg width="72" height="9" viewBox="0 0 72 9" fill="none" xmlns="http://www.w3.org/2000/svg">
<g clip-path="url(#clip0)">
<path d="M62.8297 4.49417C62.8297 3.61918 62.9607 2.88417 63.2227 2.29118C63.4177 1.85318 63.6837 1.46118 64.0217 1.11318C64.3597 0.76518 64.7297 0.507178 65.1327 0.340178C65.6677 0.113179 66.2847 0.000183105 66.9837 0.000183105C68.2497 0.000183105 69.2627 0.392184 70.0217 1.17718C70.7817 1.96318 71.1617 3.05418 71.1617 4.45317C71.1617 5.84017 70.7847 6.92416 70.0307 7.70816C69.2767 8.49116 68.2687 8.88216 67.0077 8.88216C65.7297 8.88216 64.7147 8.49315 63.9607 7.71416C63.2067 6.93416 62.8297 5.86117 62.8297 4.49417ZM64.6167 4.43517C64.6167 5.40816 64.8417 6.14517 65.2907 6.64717C65.7397 7.14917 66.3097 7.40016 67.0017 7.40016C67.6927 7.40016 68.2607 7.15116 68.7037 6.65316C69.1467 6.15516 69.3687 5.40817 69.3687 4.41217C69.3687 3.42718 69.1527 2.69317 68.7217 2.20918C68.2897 1.72418 67.7167 1.48218 67.0017 1.48218C66.2867 1.48218 65.7107 1.72718 65.2727 2.21718C64.8357 2.70818 64.6167 3.44717 64.6167 4.43517Z" fill="#8D8D8D"/>
<path d="M61.5287 0.146179H59.7947V8.73615H61.5287V0.146179Z" fill="#8D8D8D"/>
<path d="M58.1477 7.09015H56.5017V8.73615H58.1477V7.09015Z" fill="#8D8D8D"/>
<path d="M41.3786 8.73615H39.4916L38.7416 6.78516H35.3076L34.5996 8.73615H32.7596L36.1046 0.146179H37.9386L41.3786 8.73615ZM38.1846 5.33816L37.0016 2.15017L35.8416 5.33816H38.1846Z" fill="#F03737"/>
<path d="M43.3417 8.73615V1.59917H40.7927V0.146179H47.6187V1.59917H45.0757V8.73615H43.3417Z" fill="#F03737"/>
<path d="M55.5937 8.73615H53.7067L52.9567 6.78516H49.5227L48.8137 8.73615H46.9747L50.3197 0.146179H52.1537L55.5937 8.73615ZM52.3997 5.33816L51.2167 2.15017L50.0567 5.33816H52.3997Z" fill="#F03737"/>
<path d="M24.9607 0.146179H28.1307C28.8457 0.146179 29.3907 0.201173 29.7657 0.310173C30.2687 0.459172 30.7007 0.722172 31.0597 1.10117C31.4197 1.48017 31.6927 1.94417 31.8807 2.49317C32.0677 3.04217 32.1617 3.71817 32.1617 4.52317C32.1617 5.23016 32.0737 5.84016 31.8977 6.35115C31.6827 6.97615 31.3767 7.48216 30.9777 7.86916C30.6777 8.16216 30.2707 8.39015 29.7597 8.55415C29.3767 8.67515 28.8647 8.73615 28.2247 8.73615H24.9607V0.146179ZM26.6947 1.59917V7.28916H27.9897C28.4747 7.28916 28.8237 7.26116 29.0387 7.20716C29.3197 7.13616 29.5537 7.01715 29.7387 6.84915C29.9247 6.68116 30.0757 6.40515 30.1927 6.02015C30.3097 5.63516 30.3687 5.11116 30.3687 4.44716C30.3687 3.78316 30.3097 3.27317 30.1927 2.91817C30.0757 2.56217 29.9117 2.28517 29.7007 2.08617C29.4897 1.88617 29.2227 1.75217 28.8977 1.68117C28.6557 1.62717 28.1817 1.59917 27.4747 1.59917H26.6947Z" fill="#F03737"/>
<path d="M19.5697 8.73615V1.59917H17.0207V0.146179H23.8477V1.59917H21.3047V8.73615H19.5697Z" fill="white"/>
<path d="M9.63269 8.73615V0.146179H16.0017V1.59917H11.3667V3.50416H15.6797V4.95116H11.3667V7.28916H16.1657V8.73615H9.63269Z" fill="white"/>
<path d="M4.29467 5.57817V4.13117H8.03267V7.55216C7.66967 7.90416 7.14267 8.21416 6.45367 8.48116C5.76467 8.74916 5.06567 8.88216 4.35867 8.88216C3.46067 8.88216 2.67767 8.69416 2.00967 8.31716C1.34167 7.94016 0.83967 7.40116 0.50367 6.70016C0.16767 5.99916 -0.000335693 5.23617 -0.000335693 4.41217C-0.000335693 3.51718 0.186668 2.72218 0.561668 2.02718C0.936669 1.33218 1.48566 0.799183 2.20866 0.427184C2.75966 0.142185 3.44467 0.000183105 4.26567 0.000183105C5.33167 0.000183105 6.16466 0.22318 6.76466 0.671179C7.36366 1.11818 7.74967 1.73618 7.92167 2.52518L6.19867 2.84717C6.07767 2.42518 5.84967 2.09218 5.51567 1.84818C5.18267 1.60418 4.76567 1.48218 4.26567 1.48218C3.50767 1.48218 2.90466 1.72218 2.45766 2.20318C2.01066 2.68318 1.78667 3.39618 1.78667 4.34117C1.78667 5.36117 2.01367 6.12617 2.46667 6.63517C2.91967 7.14516 3.51367 7.40016 4.24767 7.40016C4.61067 7.40016 4.97467 7.32916 5.34067 7.18616C5.70567 7.04416 6.01867 6.87116 6.28067 6.66816V5.57817H4.29467Z" fill="white"/>
</g>
<defs>
<clipPath id="clip0">
<rect width="72" height="9" fill="white"/>
</clipPath>
</defs>
</svg>
