<svg width="40" height="16" viewBox="0 0 40 16" fill="none" xmlns="http://www.w3.org/2000/svg">
<path d="M3.9 7.99998C3.9 6.28999 5.29 4.89999 7 4.89999L11 4.89999V3L7 3C4.24 3 2 5.23999 2 7.99998C2 10.76 4.24 13 7 13H11V11.1H7C5.29 11.1 3.9 9.70998 3.9 7.99998ZM8 8.99998H16V6.99999L8 6.99999V8.99998ZM17 3L13 3V4.89999L17 4.89999C18.71 4.89999 20.1 6.28999 20.1 7.99998C20.1 9.70998 18.71 11.1 17 11.1H13V13H17C19.76 13 22 10.76 22 7.99998C22 5.23999 19.76 3 17 3Z" fill="#8D8D8D"/>
<path fill-rule="evenodd" clip-rule="evenodd" d="M30.9995 3H32.9995V6.99994H37V8.99994H32.9995V13H30.9995V8.99994H27V6.99994H30.9995V3Z" fill="#8D8D8D"/>
</svg>
