<svg width="48" height="24" viewBox="0 0 48 24" fill="none" xmlns="http://www.w3.org/2000/svg">
<rect width="48" height="24" rx="3" fill="#363535"/>
<path d="M7.9 12C7.9 10.29 9.29 8.89999 11 8.89999H15V7H11C8.24 7 6 9.23999 6 12C6 14.76 8.24 17 11 17H15V15.1H11C9.29 15.1 7.9 13.71 7.9 12ZM12 13H20V11L12 11V13ZM21 7L17 7V8.89999H21C22.71 8.89999 24.1 10.29 24.1 12C24.1 13.71 22.71 15.1 21 15.1H17V17H21C23.76 17 26 14.76 26 12C26 9.23999 23.76 7 21 7Z" fill="white"/>
<path fill-rule="evenodd" clip-rule="evenodd" d="M34.9995 7H36.9995V10.9999H41V12.9999H36.9995V17H34.9995V12.9999H31V10.9999H34.9995V7Z" fill="white"/>
</svg>
