<svg width="22" height="14" viewBox="0 0 22 14" fill="none" xmlns="http://www.w3.org/2000/svg">
<path d="M15 5.99998C16.66 5.99998 17.99 4.65999 17.99 2.99999C17.99 1.34 16.66 0 15 0C13.34 0 12 1.34 12 2.99999C12 4.65999 13.34 5.99998 15 5.99998ZM7 5.99998C8.66 5.99998 9.99 4.65999 9.99 2.99999C9.99 1.34 8.66 0 7 0C5.34 0 4 1.34 4 2.99999C4 4.65999 5.34 5.99998 7 5.99998ZM7 7.99998C4.67 7.99998 0 9.16997 0 11.5V14H14V11.5C14 9.16997 9.33 7.99998 7 7.99998ZM15 7.99998C14.71 7.99998 14.38 8.01998 14.03 8.04998C15.19 8.88997 16 10.02 16 11.5V14H22V11.5C22 9.16997 17.33 7.99998 15 7.99998Z" fill="white"/>
</svg>
